<svg width="2000" height="2000" viewBox="0 0 2000 2000" fill="none" xmlns="http://www.w3.org/2000/svg">
<g clip-path="url(#clip0_1252_3)">
<path d="M1561.23 1224.81H438.767L1000 430.32L1561.23 1224.81Z" stroke="black" stroke-width="200"/>
<path d="M1561.23 1370.81H438.767L1000 576.32L1561.23 1370.81Z" stroke="#0000FF" stroke-width="200"/>
<path d="M180.951 1736L278.871 1512H353.111L451.031 1736H372.951L300.631 1547.84H330.071L257.751 1736H180.951ZM239.191 1696.96L258.391 1642.56H361.431L380.631 1696.96H239.191ZM555.921 1739.2C534.588 1739.2 515.921 1735.25 499.921 1727.36C484.135 1719.47 471.868 1708.69 463.121 1695.04C454.375 1681.17 450.001 1665.6 450.001 1648.32C450.001 1630.61 454.268 1614.93 462.801 1601.28C471.548 1587.63 483.388 1576.96 498.321 1569.28C513.468 1561.6 530.428 1557.76 549.201 1557.76C566.481 1557.76 582.375 1561.17 596.881 1568C611.601 1574.83 623.335 1584.96 632.081 1598.4C641.041 1611.84 645.521 1628.48 645.521 1648.32C645.521 1650.88 645.415 1653.76 645.201 1656.96C644.988 1659.95 644.775 1662.72 644.561 1665.28H509.841V1630.4H606.161L578.961 1639.68C578.961 1632.85 577.681 1627.09 575.121 1622.4C572.775 1617.49 569.468 1613.76 565.201 1611.2C560.935 1608.43 555.815 1607.04 549.841 1607.04C543.868 1607.04 538.641 1608.43 534.161 1611.2C529.895 1613.76 526.588 1617.49 524.241 1622.4C521.895 1627.09 520.721 1632.85 520.721 1639.68V1650.56C520.721 1658.03 522.215 1664.43 525.201 1669.76C528.188 1675.09 532.455 1679.15 538.001 1681.92C543.548 1684.48 550.268 1685.76 558.161 1685.76C566.268 1685.76 572.881 1684.69 578.001 1682.56C583.335 1680.43 588.881 1677.23 594.641 1672.96L632.401 1711.04C623.868 1720.21 613.308 1727.25 600.721 1732.16C588.348 1736.85 573.415 1739.2 555.921 1739.2ZM752.824 1739.2C728.717 1739.2 709.944 1733.44 696.504 1721.92C683.064 1710.19 676.344 1692.27 676.344 1668.16V1521.6H748.664V1667.52C748.664 1672.85 750.05 1677.01 752.824 1680C755.81 1682.99 759.437 1684.48 763.704 1684.48C769.89 1684.48 775.33 1682.88 780.024 1679.68L797.304 1729.92C791.757 1733.12 785.037 1735.47 777.144 1736.96C769.464 1738.45 761.357 1739.2 752.824 1739.2ZM652.344 1623.36V1570.56H784.504V1623.36H652.344ZM937.131 1557.76C950.571 1557.76 962.731 1560.53 973.611 1566.08C984.491 1571.41 993.025 1579.84 999.211 1591.36C1005.61 1602.88 1008.81 1617.81 1008.81 1636.16V1736H936.491V1648.64C936.491 1637.76 934.571 1630.08 930.731 1625.6C926.891 1620.91 921.665 1618.56 915.051 1618.56C910.145 1618.56 905.558 1619.73 901.291 1622.08C897.238 1624.21 893.931 1627.84 891.371 1632.96C889.025 1638.08 887.851 1645.01 887.851 1653.76V1736H815.531V1498.56H887.851V1612.16L870.571 1597.44C877.398 1584.21 886.571 1574.29 898.091 1567.68C909.825 1561.07 922.838 1557.76 937.131 1557.76ZM1139.98 1739.2C1118.65 1739.2 1099.98 1735.25 1083.98 1727.36C1068.2 1719.47 1055.93 1708.69 1047.18 1695.04C1038.44 1681.17 1034.06 1665.6 1034.06 1648.32C1034.06 1630.61 1038.33 1614.93 1046.86 1601.28C1055.61 1587.63 1067.45 1576.96 1082.38 1569.28C1097.53 1561.6 1114.49 1557.76 1133.26 1557.76C1150.54 1557.76 1166.44 1561.17 1180.94 1568C1195.66 1574.83 1207.4 1584.96 1216.14 1598.4C1225.1 1611.84 1229.58 1628.48 1229.58 1648.32C1229.58 1650.88 1229.48 1653.76 1229.26 1656.96C1229.05 1659.95 1228.84 1662.72 1228.62 1665.28H1093.9V1630.4H1190.22L1163.02 1639.68C1163.02 1632.85 1161.74 1627.09 1159.18 1622.4C1156.84 1617.49 1153.53 1613.76 1149.26 1611.2C1145 1608.43 1139.88 1607.04 1133.9 1607.04C1127.93 1607.04 1122.7 1608.43 1118.22 1611.2C1113.96 1613.76 1110.65 1617.49 1108.3 1622.4C1105.96 1627.09 1104.78 1632.85 1104.78 1639.68V1650.56C1104.78 1658.03 1106.28 1664.43 1109.26 1669.76C1112.25 1675.09 1116.52 1679.15 1122.06 1681.92C1127.61 1684.48 1134.33 1685.76 1142.22 1685.76C1150.33 1685.76 1156.94 1684.69 1162.06 1682.56C1167.4 1680.43 1172.94 1677.23 1178.7 1672.96L1216.46 1711.04C1207.93 1720.21 1197.37 1727.25 1184.78 1732.16C1172.41 1736.85 1157.48 1739.2 1139.98 1739.2ZM1252.41 1736V1560.96H1321.21V1613.76L1310.01 1598.72C1315.34 1585.07 1323.87 1574.83 1335.61 1568C1347.34 1561.17 1361.42 1557.76 1377.85 1557.76V1621.76C1374.65 1621.33 1371.77 1621.01 1369.21 1620.8C1366.86 1620.59 1364.41 1620.48 1361.85 1620.48C1350.97 1620.48 1342.01 1623.36 1334.97 1629.12C1328.14 1634.67 1324.73 1644.37 1324.73 1658.24V1736H1252.41Z" fill="black"/>
<path d="M1511.42 1741.12C1493.5 1741.12 1476.86 1738.35 1461.5 1732.8C1446.36 1727.04 1433.13 1718.93 1421.82 1708.48C1410.73 1698.03 1402.09 1685.65 1395.9 1671.36C1389.72 1657.07 1386.62 1641.28 1386.62 1624C1386.62 1606.72 1389.72 1590.93 1395.9 1576.64C1402.09 1562.35 1410.73 1549.97 1421.82 1539.52C1433.13 1529.07 1446.36 1521.07 1461.5 1515.52C1476.86 1509.76 1493.5 1506.88 1511.42 1506.88C1533.4 1506.88 1552.81 1510.72 1569.66 1518.4C1586.73 1526.08 1600.81 1537.17 1611.9 1551.68L1564.22 1594.24C1557.61 1585.92 1550.25 1579.52 1542.14 1575.04C1534.25 1570.35 1525.29 1568 1515.26 1568C1507.37 1568 1500.22 1569.28 1493.82 1571.84C1487.42 1574.4 1481.88 1578.13 1477.18 1583.04C1472.7 1587.95 1469.18 1593.92 1466.62 1600.96C1464.06 1607.79 1462.78 1615.47 1462.78 1624C1462.78 1632.53 1464.06 1640.32 1466.62 1647.36C1469.18 1654.19 1472.7 1660.05 1477.18 1664.96C1481.88 1669.87 1487.42 1673.6 1493.82 1676.16C1500.22 1678.72 1507.37 1680 1515.26 1680C1525.29 1680 1534.25 1677.76 1542.14 1673.28C1550.25 1668.59 1557.61 1662.08 1564.22 1653.76L1611.9 1696.32C1600.81 1710.61 1586.73 1721.71 1569.66 1729.6C1552.81 1737.28 1533.4 1741.12 1511.42 1741.12ZM1633.71 1736V1512H1709.23V1677.44H1810.35V1736H1633.71Z" fill="#0000FF"/>
</g>
<defs>
<clipPath id="clip0_1252_3">
<rect width="1742" height="1485" fill="white" transform="translate(129 257)"/>
</clipPath>
</defs>
</svg>
